<mxfile host="Electron" agent="Mozilla/5.0 (X11; Linux x86_64) AppleWebKit/537.36 (KHTML, like Gecko) draw.io/26.1.1 Chrome/132.0.6834.210 Electron/34.3.3 Safari/537.36" version="26.1.1">
  <diagram name="Page-1" id="qgXZZgw6NQgDJ8TqkAtQ">
    <mxGraphModel dx="2284" dy="870" grid="1" gridSize="10" guides="1" tooltips="1" connect="1" arrows="1" fold="1" page="1" pageScale="1" pageWidth="850" pageHeight="1100" math="0" shadow="0">
      <root>
        <mxCell id="0" />
        <mxCell id="1" parent="0" />
        <mxCell id="6GVujyjc-Z2XJHwNqzD1-3" style="edgeStyle=orthogonalEdgeStyle;rounded=0;orthogonalLoop=1;jettySize=auto;html=1;exitX=0.5;exitY=1;exitDx=0;exitDy=0;entryX=0.5;entryY=0;entryDx=0;entryDy=0;" parent="1" source="6GVujyjc-Z2XJHwNqzD1-1" target="6GVujyjc-Z2XJHwNqzD1-2" edge="1">
          <mxGeometry relative="1" as="geometry" />
        </mxCell>
        <mxCell id="6GVujyjc-Z2XJHwNqzD1-1" value="START" style="ellipse;whiteSpace=wrap;html=1;aspect=fixed;fillColor=#d5e8d4;strokeColor=#82b366;" parent="1" vertex="1">
          <mxGeometry x="140" y="60" width="80" height="80" as="geometry" />
        </mxCell>
        <mxCell id="6GVujyjc-Z2XJHwNqzD1-5" style="edgeStyle=orthogonalEdgeStyle;rounded=0;orthogonalLoop=1;jettySize=auto;html=1;exitX=0.5;exitY=1;exitDx=0;exitDy=0;entryX=0.5;entryY=0;entryDx=0;entryDy=0;" parent="1" source="6GVujyjc-Z2XJHwNqzD1-2" target="6GVujyjc-Z2XJHwNqzD1-4" edge="1">
          <mxGeometry relative="1" as="geometry" />
        </mxCell>
        <mxCell id="6GVujyjc-Z2XJHwNqzD1-2" value="Set the turn to &lt;b&gt;Player 1&lt;/b&gt;;&lt;div&gt;Initialize &lt;b&gt;Player 1&#39;s&lt;/b&gt; total score to &lt;b&gt;0&lt;/b&gt;;&lt;/div&gt;&lt;div&gt;Initialize&amp;nbsp;&lt;b&gt;Player 1&#39;s&lt;/b&gt;&amp;nbsp;current score to&amp;nbsp;&lt;b&gt;0&lt;/b&gt;;&lt;/div&gt;&lt;div&gt;Initialize&amp;nbsp;&lt;b&gt;Player 2&#39;s&lt;/b&gt;&amp;nbsp;total score to&amp;nbsp;&lt;b&gt;0&lt;/b&gt;;&lt;/div&gt;&lt;div&gt;Initialize&amp;nbsp;&lt;b&gt;Player 2&#39;s&lt;/b&gt;&amp;nbsp;current score to&amp;nbsp;&lt;b&gt;0&lt;/b&gt;&lt;/div&gt;" style="rounded=0;whiteSpace=wrap;html=1;" parent="1" vertex="1">
          <mxGeometry x="70" y="180" width="220" height="100" as="geometry" />
        </mxCell>
        <mxCell id="6GVujyjc-Z2XJHwNqzD1-7" style="edgeStyle=orthogonalEdgeStyle;rounded=0;orthogonalLoop=1;jettySize=auto;html=1;exitX=0.5;exitY=1;exitDx=0;exitDy=0;entryX=0.5;entryY=0;entryDx=0;entryDy=0;" parent="1" source="6GVujyjc-Z2XJHwNqzD1-4" target="6GVujyjc-Z2XJHwNqzD1-6" edge="1">
          <mxGeometry relative="1" as="geometry" />
        </mxCell>
        <mxCell id="6GVujyjc-Z2XJHwNqzD1-4" value="Display the die with&lt;div&gt;a face value of &lt;b&gt;5&lt;/b&gt;&lt;/div&gt;" style="shape=parallelogram;perimeter=parallelogramPerimeter;whiteSpace=wrap;html=1;fixedSize=1;" parent="1" vertex="1">
          <mxGeometry x="105" y="320" width="150" height="60" as="geometry" />
        </mxCell>
        <mxCell id="6GVujyjc-Z2XJHwNqzD1-9" style="edgeStyle=orthogonalEdgeStyle;rounded=0;orthogonalLoop=1;jettySize=auto;html=1;exitX=0.5;exitY=1;exitDx=0;exitDy=0;entryX=0.5;entryY=0;entryDx=0;entryDy=0;" parent="1" source="6GVujyjc-Z2XJHwNqzD1-6" target="6GVujyjc-Z2XJHwNqzD1-8" edge="1">
          <mxGeometry relative="1" as="geometry" />
        </mxCell>
        <mxCell id="6GVujyjc-Z2XJHwNqzD1-88" style="edgeStyle=orthogonalEdgeStyle;rounded=0;orthogonalLoop=1;jettySize=auto;html=1;exitX=0;exitY=0.5;exitDx=0;exitDy=0;entryX=1;entryY=0.5;entryDx=0;entryDy=0;" parent="1" source="6GVujyjc-Z2XJHwNqzD1-6" target="6GVujyjc-Z2XJHwNqzD1-87" edge="1">
          <mxGeometry relative="1" as="geometry" />
        </mxCell>
        <mxCell id="6GVujyjc-Z2XJHwNqzD1-6" value="Did &lt;b&gt;Player 1&lt;/b&gt;&lt;div&gt;roll the die?&lt;/div&gt;" style="rhombus;whiteSpace=wrap;html=1;" parent="1" vertex="1">
          <mxGeometry x="130" y="420" width="100" height="100" as="geometry" />
        </mxCell>
        <mxCell id="6GVujyjc-Z2XJHwNqzD1-8" value="Update the image to&lt;div&gt;show a random face&lt;/div&gt;" style="shape=parallelogram;perimeter=parallelogramPerimeter;whiteSpace=wrap;html=1;fixedSize=1;" parent="1" vertex="1">
          <mxGeometry x="105" y="560" width="150" height="60" as="geometry" />
        </mxCell>
        <mxCell id="6GVujyjc-Z2XJHwNqzD1-10" value="YES" style="text;html=1;align=center;verticalAlign=middle;whiteSpace=wrap;rounded=0;" parent="1" vertex="1">
          <mxGeometry x="180" y="520" width="60" height="30" as="geometry" />
        </mxCell>
        <mxCell id="6GVujyjc-Z2XJHwNqzD1-17" style="edgeStyle=orthogonalEdgeStyle;rounded=0;orthogonalLoop=1;jettySize=auto;html=1;exitX=1;exitY=0.5;exitDx=0;exitDy=0;entryX=0;entryY=0.5;entryDx=0;entryDy=0;" parent="1" source="6GVujyjc-Z2XJHwNqzD1-11" target="6GVujyjc-Z2XJHwNqzD1-16" edge="1">
          <mxGeometry relative="1" as="geometry" />
        </mxCell>
        <mxCell id="6GVujyjc-Z2XJHwNqzD1-91" style="edgeStyle=orthogonalEdgeStyle;rounded=0;orthogonalLoop=1;jettySize=auto;html=1;exitX=0.5;exitY=1;exitDx=0;exitDy=0;entryX=0.5;entryY=0;entryDx=0;entryDy=0;" parent="1" source="6GVujyjc-Z2XJHwNqzD1-11" target="6GVujyjc-Z2XJHwNqzD1-80" edge="1">
          <mxGeometry relative="1" as="geometry" />
        </mxCell>
        <mxCell id="6GVujyjc-Z2XJHwNqzD1-11" value="Does the face&lt;div&gt;show &lt;b&gt;1&lt;/b&gt;?&lt;/div&gt;" style="rhombus;whiteSpace=wrap;html=1;" parent="1" vertex="1">
          <mxGeometry x="130" y="660" width="100" height="100" as="geometry" />
        </mxCell>
        <mxCell id="6GVujyjc-Z2XJHwNqzD1-12" style="edgeStyle=orthogonalEdgeStyle;rounded=0;orthogonalLoop=1;jettySize=auto;html=1;exitX=0.5;exitY=1;exitDx=0;exitDy=0;entryX=0.504;entryY=0.046;entryDx=0;entryDy=0;entryPerimeter=0;" parent="1" source="6GVujyjc-Z2XJHwNqzD1-8" target="6GVujyjc-Z2XJHwNqzD1-11" edge="1">
          <mxGeometry relative="1" as="geometry" />
        </mxCell>
        <mxCell id="6GVujyjc-Z2XJHwNqzD1-15" value="YES" style="text;html=1;align=center;verticalAlign=middle;whiteSpace=wrap;rounded=0;" parent="1" vertex="1">
          <mxGeometry x="180" y="760" width="60" height="30" as="geometry" />
        </mxCell>
        <mxCell id="6GVujyjc-Z2XJHwNqzD1-22" style="edgeStyle=orthogonalEdgeStyle;rounded=0;orthogonalLoop=1;jettySize=auto;html=1;exitX=0.5;exitY=1;exitDx=0;exitDy=0;" parent="1" source="6GVujyjc-Z2XJHwNqzD1-16" target="6GVujyjc-Z2XJHwNqzD1-19" edge="1">
          <mxGeometry relative="1" as="geometry" />
        </mxCell>
        <mxCell id="6GVujyjc-Z2XJHwNqzD1-16" value="Add the rolled value to &lt;b&gt;Player 1&#39;s&lt;/b&gt; current score" style="rounded=0;whiteSpace=wrap;html=1;" parent="1" vertex="1">
          <mxGeometry x="320" y="680" width="120" height="60" as="geometry" />
        </mxCell>
        <mxCell id="6GVujyjc-Z2XJHwNqzD1-18" value="NO" style="text;html=1;align=center;verticalAlign=middle;whiteSpace=wrap;rounded=0;" parent="1" vertex="1">
          <mxGeometry x="70" y="440" width="60" height="30" as="geometry" />
        </mxCell>
        <mxCell id="6GVujyjc-Z2XJHwNqzD1-23" style="edgeStyle=orthogonalEdgeStyle;rounded=0;orthogonalLoop=1;jettySize=auto;html=1;exitX=0.5;exitY=1;exitDx=0;exitDy=0;entryX=0.5;entryY=0;entryDx=0;entryDy=0;" parent="1" source="6GVujyjc-Z2XJHwNqzD1-19" target="6GVujyjc-Z2XJHwNqzD1-21" edge="1">
          <mxGeometry relative="1" as="geometry" />
        </mxCell>
        <mxCell id="6GVujyjc-Z2XJHwNqzD1-66" style="edgeStyle=orthogonalEdgeStyle;rounded=0;orthogonalLoop=1;jettySize=auto;html=1;exitX=1;exitY=0.5;exitDx=0;exitDy=0;" parent="1" source="6GVujyjc-Z2XJHwNqzD1-19" edge="1">
          <mxGeometry relative="1" as="geometry">
            <mxPoint x="480" y="470.0000000000001" as="targetPoint" />
          </mxGeometry>
        </mxCell>
        <mxCell id="6GVujyjc-Z2XJHwNqzD1-19" value="Does &lt;b&gt;Player 1&lt;/b&gt;&lt;div&gt;choose&amp;nbsp;&lt;span style=&quot;background-color: transparent; color: light-dark(rgb(0, 0, 0), rgb(255, 255, 255));&quot;&gt;to hold?&lt;/span&gt;&lt;/div&gt;" style="rhombus;whiteSpace=wrap;html=1;" parent="1" vertex="1">
          <mxGeometry x="325" y="775" width="110" height="110" as="geometry" />
        </mxCell>
        <mxCell id="6GVujyjc-Z2XJHwNqzD1-27" style="edgeStyle=orthogonalEdgeStyle;rounded=0;orthogonalLoop=1;jettySize=auto;html=1;exitX=0.5;exitY=1;exitDx=0;exitDy=0;entryX=0.5;entryY=0;entryDx=0;entryDy=0;" parent="1" source="6GVujyjc-Z2XJHwNqzD1-21" target="6GVujyjc-Z2XJHwNqzD1-26" edge="1">
          <mxGeometry relative="1" as="geometry" />
        </mxCell>
        <mxCell id="6GVujyjc-Z2XJHwNqzD1-21" value="Add their current score to their total score" style="rounded=0;whiteSpace=wrap;html=1;" parent="1" vertex="1">
          <mxGeometry x="320" y="920" width="120" height="60" as="geometry" />
        </mxCell>
        <mxCell id="6GVujyjc-Z2XJHwNqzD1-24" value="YES" style="text;html=1;align=center;verticalAlign=middle;whiteSpace=wrap;rounded=0;" parent="1" vertex="1">
          <mxGeometry x="380" y="885" width="60" height="30" as="geometry" />
        </mxCell>
        <mxCell id="6GVujyjc-Z2XJHwNqzD1-34" style="edgeStyle=orthogonalEdgeStyle;rounded=0;orthogonalLoop=1;jettySize=auto;html=1;exitX=1;exitY=0.5;exitDx=0;exitDy=0;entryX=0;entryY=0.5;entryDx=0;entryDy=0;" parent="1" source="6GVujyjc-Z2XJHwNqzD1-26" target="6GVujyjc-Z2XJHwNqzD1-33" edge="1">
          <mxGeometry relative="1" as="geometry" />
        </mxCell>
        <mxCell id="6GVujyjc-Z2XJHwNqzD1-69" style="edgeStyle=orthogonalEdgeStyle;rounded=0;orthogonalLoop=1;jettySize=auto;html=1;exitX=0;exitY=0.5;exitDx=0;exitDy=0;entryX=1;entryY=0.5;entryDx=0;entryDy=0;" parent="1" source="6GVujyjc-Z2XJHwNqzD1-26" target="6GVujyjc-Z2XJHwNqzD1-28" edge="1">
          <mxGeometry relative="1" as="geometry" />
        </mxCell>
        <mxCell id="6GVujyjc-Z2XJHwNqzD1-26" value="Did&amp;nbsp;&lt;b&gt;Player 1&#39;s&lt;/b&gt;&lt;div&gt;total score&lt;/div&gt;&lt;div&gt;reach&amp;nbsp;&lt;span style=&quot;background-color: transparent; color: light-dark(rgb(0, 0, 0), rgb(255, 255, 255));&quot;&gt;&lt;b&gt;100&lt;/b&gt;?&lt;/span&gt;&lt;/div&gt;" style="rhombus;whiteSpace=wrap;html=1;" parent="1" vertex="1">
          <mxGeometry x="325" y="1020" width="110" height="110" as="geometry" />
        </mxCell>
        <mxCell id="6GVujyjc-Z2XJHwNqzD1-85" style="edgeStyle=orthogonalEdgeStyle;rounded=0;orthogonalLoop=1;jettySize=auto;html=1;exitX=0;exitY=0.5;exitDx=0;exitDy=0;entryX=1;entryY=0.5;entryDx=0;entryDy=0;" parent="1" source="6GVujyjc-Z2XJHwNqzD1-28" target="6GVujyjc-Z2XJHwNqzD1-30" edge="1">
          <mxGeometry relative="1" as="geometry" />
        </mxCell>
        <mxCell id="6GVujyjc-Z2XJHwNqzD1-28" value="Declare &lt;b&gt;Player 1&lt;/b&gt; the winner" style="rounded=0;whiteSpace=wrap;html=1;" parent="1" vertex="1">
          <mxGeometry x="135" y="1045" width="120" height="60" as="geometry" />
        </mxCell>
        <mxCell id="6GVujyjc-Z2XJHwNqzD1-30" value="END" style="ellipse;whiteSpace=wrap;html=1;aspect=fixed;fillColor=#f8cecc;strokeColor=#b85450;" parent="1" vertex="1">
          <mxGeometry x="9" y="1035" width="80" height="80" as="geometry" />
        </mxCell>
        <mxCell id="6GVujyjc-Z2XJHwNqzD1-37" style="edgeStyle=orthogonalEdgeStyle;rounded=0;orthogonalLoop=1;jettySize=auto;html=1;exitX=0.5;exitY=1;exitDx=0;exitDy=0;entryX=0.5;entryY=0;entryDx=0;entryDy=0;" parent="1" source="6GVujyjc-Z2XJHwNqzD1-33" target="6GVujyjc-Z2XJHwNqzD1-36" edge="1">
          <mxGeometry relative="1" as="geometry" />
        </mxCell>
        <mxCell id="6GVujyjc-Z2XJHwNqzD1-33" value="Reset&amp;nbsp;&lt;b&gt;Player 1&#39;s&lt;/b&gt;&amp;nbsp;current score to &lt;b&gt;0&lt;/b&gt;;&lt;div&gt;Switch turns to &lt;b&gt;Player 2&lt;/b&gt;&lt;/div&gt;" style="rounded=0;whiteSpace=wrap;html=1;" parent="1" vertex="1">
          <mxGeometry x="490" y="1045" width="200" height="60" as="geometry" />
        </mxCell>
        <mxCell id="6GVujyjc-Z2XJHwNqzD1-35" value="NO" style="text;html=1;align=center;verticalAlign=middle;whiteSpace=wrap;rounded=0;" parent="1" vertex="1">
          <mxGeometry x="435" y="1045" width="60" height="30" as="geometry" />
        </mxCell>
        <mxCell id="6GVujyjc-Z2XJHwNqzD1-39" style="edgeStyle=orthogonalEdgeStyle;rounded=0;orthogonalLoop=1;jettySize=auto;html=1;exitX=0.5;exitY=1;exitDx=0;exitDy=0;entryX=0.5;entryY=0;entryDx=0;entryDy=0;" parent="1" source="6GVujyjc-Z2XJHwNqzD1-36" target="6GVujyjc-Z2XJHwNqzD1-38" edge="1">
          <mxGeometry relative="1" as="geometry" />
        </mxCell>
        <mxCell id="6GVujyjc-Z2XJHwNqzD1-94" style="edgeStyle=orthogonalEdgeStyle;rounded=0;orthogonalLoop=1;jettySize=auto;html=1;exitX=1;exitY=0.5;exitDx=0;exitDy=0;entryX=0;entryY=0.5;entryDx=0;entryDy=0;" parent="1" source="6GVujyjc-Z2XJHwNqzD1-36" target="6GVujyjc-Z2XJHwNqzD1-93" edge="1">
          <mxGeometry relative="1" as="geometry" />
        </mxCell>
        <mxCell id="6GVujyjc-Z2XJHwNqzD1-36" value="Did &lt;b&gt;Player 2&lt;/b&gt;&lt;div&gt;roll the die?&lt;/div&gt;" style="rhombus;whiteSpace=wrap;html=1;" parent="1" vertex="1">
          <mxGeometry x="540" y="1150" width="100" height="100" as="geometry" />
        </mxCell>
        <mxCell id="6GVujyjc-Z2XJHwNqzD1-42" style="edgeStyle=orthogonalEdgeStyle;rounded=0;orthogonalLoop=1;jettySize=auto;html=1;exitX=0.5;exitY=1;exitDx=0;exitDy=0;entryX=0.5;entryY=0;entryDx=0;entryDy=0;" parent="1" source="6GVujyjc-Z2XJHwNqzD1-38" target="6GVujyjc-Z2XJHwNqzD1-41" edge="1">
          <mxGeometry relative="1" as="geometry" />
        </mxCell>
        <mxCell id="6GVujyjc-Z2XJHwNqzD1-38" value="Update the image to&lt;div&gt;show a random face&lt;/div&gt;" style="shape=parallelogram;perimeter=parallelogramPerimeter;whiteSpace=wrap;html=1;fixedSize=1;" parent="1" vertex="1">
          <mxGeometry x="515" y="1290" width="150" height="60" as="geometry" />
        </mxCell>
        <mxCell id="6GVujyjc-Z2XJHwNqzD1-40" value="YES" style="text;html=1;align=center;verticalAlign=middle;whiteSpace=wrap;rounded=0;" parent="1" vertex="1">
          <mxGeometry x="590" y="1250" width="60" height="30" as="geometry" />
        </mxCell>
        <mxCell id="6GVujyjc-Z2XJHwNqzD1-44" style="edgeStyle=orthogonalEdgeStyle;rounded=0;orthogonalLoop=1;jettySize=auto;html=1;exitX=0.5;exitY=1;exitDx=0;exitDy=0;" parent="1" source="6GVujyjc-Z2XJHwNqzD1-41" target="6GVujyjc-Z2XJHwNqzD1-43" edge="1">
          <mxGeometry relative="1" as="geometry" />
        </mxCell>
        <mxCell id="6GVujyjc-Z2XJHwNqzD1-53" style="edgeStyle=orthogonalEdgeStyle;rounded=0;orthogonalLoop=1;jettySize=auto;html=1;exitX=0;exitY=0.5;exitDx=0;exitDy=0;" parent="1" source="6GVujyjc-Z2XJHwNqzD1-41" target="6GVujyjc-Z2XJHwNqzD1-46" edge="1">
          <mxGeometry relative="1" as="geometry" />
        </mxCell>
        <mxCell id="6GVujyjc-Z2XJHwNqzD1-41" value="Does the face&lt;div&gt;show &lt;b&gt;1&lt;/b&gt;?&lt;/div&gt;" style="rhombus;whiteSpace=wrap;html=1;" parent="1" vertex="1">
          <mxGeometry x="540" y="1390" width="100" height="100" as="geometry" />
        </mxCell>
        <mxCell id="6GVujyjc-Z2XJHwNqzD1-59" style="edgeStyle=orthogonalEdgeStyle;rounded=0;orthogonalLoop=1;jettySize=auto;html=1;exitX=1;exitY=0.5;exitDx=0;exitDy=0;entryX=1;entryY=0.5;entryDx=0;entryDy=0;" parent="1" source="6GVujyjc-Z2XJHwNqzD1-43" target="6GVujyjc-Z2XJHwNqzD1-6" edge="1">
          <mxGeometry relative="1" as="geometry">
            <Array as="points">
              <mxPoint x="830" y="1560" />
              <mxPoint x="830" y="470" />
            </Array>
          </mxGeometry>
        </mxCell>
        <mxCell id="6GVujyjc-Z2XJHwNqzD1-43" value="Reset &lt;b&gt;Player 2&#39;s&lt;/b&gt; current score to &lt;b&gt;0&lt;/b&gt;;&lt;div&gt;Switch turns to &lt;b&gt;Player 1&lt;/b&gt;&lt;/div&gt;" style="rounded=0;whiteSpace=wrap;html=1;" parent="1" vertex="1">
          <mxGeometry x="490" y="1530" width="200" height="60" as="geometry" />
        </mxCell>
        <mxCell id="6GVujyjc-Z2XJHwNqzD1-45" value="YES" style="text;html=1;align=center;verticalAlign=middle;whiteSpace=wrap;rounded=0;" parent="1" vertex="1">
          <mxGeometry x="590" y="1490" width="60" height="30" as="geometry" />
        </mxCell>
        <mxCell id="6GVujyjc-Z2XJHwNqzD1-55" style="edgeStyle=orthogonalEdgeStyle;rounded=0;orthogonalLoop=1;jettySize=auto;html=1;exitX=0;exitY=0.5;exitDx=0;exitDy=0;entryX=1;entryY=0.5;entryDx=0;entryDy=0;" parent="1" source="6GVujyjc-Z2XJHwNqzD1-46" target="6GVujyjc-Z2XJHwNqzD1-49" edge="1">
          <mxGeometry relative="1" as="geometry" />
        </mxCell>
        <mxCell id="6GVujyjc-Z2XJHwNqzD1-46" value="Add the rolled value to &lt;b&gt;Player 2&#39;s&lt;/b&gt; current score" style="rounded=0;whiteSpace=wrap;html=1;" parent="1" vertex="1">
          <mxGeometry x="350" y="1410" width="120" height="60" as="geometry" />
        </mxCell>
        <mxCell id="6GVujyjc-Z2XJHwNqzD1-48" value="NO" style="text;html=1;align=center;verticalAlign=middle;whiteSpace=wrap;rounded=0;" parent="1" vertex="1">
          <mxGeometry x="480" y="1410" width="60" height="30" as="geometry" />
        </mxCell>
        <mxCell id="6GVujyjc-Z2XJHwNqzD1-65" style="edgeStyle=orthogonalEdgeStyle;rounded=0;orthogonalLoop=1;jettySize=auto;html=1;exitX=0;exitY=0.5;exitDx=0;exitDy=0;entryX=1;entryY=0.5;entryDx=0;entryDy=0;" parent="1" source="6GVujyjc-Z2XJHwNqzD1-49" target="6GVujyjc-Z2XJHwNqzD1-56" edge="1">
          <mxGeometry relative="1" as="geometry" />
        </mxCell>
        <mxCell id="6GVujyjc-Z2XJHwNqzD1-73" style="edgeStyle=orthogonalEdgeStyle;rounded=0;orthogonalLoop=1;jettySize=auto;html=1;exitX=0.5;exitY=0;exitDx=0;exitDy=0;entryX=0;entryY=0.5;entryDx=0;entryDy=0;" parent="1" source="6GVujyjc-Z2XJHwNqzD1-49" target="6GVujyjc-Z2XJHwNqzD1-36" edge="1">
          <mxGeometry relative="1" as="geometry">
            <Array as="points">
              <mxPoint x="225" y="1200" />
            </Array>
          </mxGeometry>
        </mxCell>
        <mxCell id="6GVujyjc-Z2XJHwNqzD1-49" value="Does &lt;b&gt;Player 2&lt;/b&gt;&lt;div&gt;choose&amp;nbsp;&lt;span style=&quot;background-color: transparent; color: light-dark(rgb(0, 0, 0), rgb(255, 255, 255));&quot;&gt;to hold?&lt;/span&gt;&lt;/div&gt;" style="rhombus;whiteSpace=wrap;html=1;" parent="1" vertex="1">
          <mxGeometry x="170" y="1385" width="110" height="110" as="geometry" />
        </mxCell>
        <mxCell id="6GVujyjc-Z2XJHwNqzD1-60" style="edgeStyle=orthogonalEdgeStyle;rounded=0;orthogonalLoop=1;jettySize=auto;html=1;exitX=0.5;exitY=0;exitDx=0;exitDy=0;entryX=0.5;entryY=1;entryDx=0;entryDy=0;" parent="1" source="6GVujyjc-Z2XJHwNqzD1-56" target="6GVujyjc-Z2XJHwNqzD1-58" edge="1">
          <mxGeometry relative="1" as="geometry" />
        </mxCell>
        <mxCell id="6GVujyjc-Z2XJHwNqzD1-56" value="Add their current score to their total score" style="rounded=0;whiteSpace=wrap;html=1;" parent="1" vertex="1">
          <mxGeometry x="-11" y="1410" width="120" height="60" as="geometry" />
        </mxCell>
        <mxCell id="6GVujyjc-Z2XJHwNqzD1-71" style="edgeStyle=orthogonalEdgeStyle;rounded=0;orthogonalLoop=1;jettySize=auto;html=1;exitX=0.5;exitY=0;exitDx=0;exitDy=0;entryX=0.5;entryY=1;entryDx=0;entryDy=0;" parent="1" source="6GVujyjc-Z2XJHwNqzD1-58" target="6GVujyjc-Z2XJHwNqzD1-62" edge="1">
          <mxGeometry relative="1" as="geometry" />
        </mxCell>
        <mxCell id="6GVujyjc-Z2XJHwNqzD1-78" style="edgeStyle=orthogonalEdgeStyle;rounded=0;orthogonalLoop=1;jettySize=auto;html=1;exitX=0;exitY=0.5;exitDx=0;exitDy=0;entryX=0;entryY=0.5;entryDx=0;entryDy=0;" parent="1" source="6GVujyjc-Z2XJHwNqzD1-58" target="6GVujyjc-Z2XJHwNqzD1-43" edge="1">
          <mxGeometry relative="1" as="geometry">
            <Array as="points">
              <mxPoint x="-60" y="1310" />
              <mxPoint x="-60" y="1560" />
            </Array>
          </mxGeometry>
        </mxCell>
        <mxCell id="6GVujyjc-Z2XJHwNqzD1-58" value="Did&amp;nbsp;&lt;b&gt;Player 2&#39;s&lt;/b&gt;&lt;div&gt;total score&lt;/div&gt;&lt;div&gt;reach&amp;nbsp;&lt;span style=&quot;background-color: transparent; color: light-dark(rgb(0, 0, 0), rgb(255, 255, 255));&quot;&gt;&lt;b&gt;100&lt;/b&gt;?&lt;/span&gt;&lt;/div&gt;" style="rhombus;whiteSpace=wrap;html=1;" parent="1" vertex="1">
          <mxGeometry x="-6" y="1255" width="110" height="110" as="geometry" />
        </mxCell>
        <mxCell id="6GVujyjc-Z2XJHwNqzD1-84" style="edgeStyle=orthogonalEdgeStyle;rounded=0;orthogonalLoop=1;jettySize=auto;html=1;exitX=0.5;exitY=0;exitDx=0;exitDy=0;entryX=0.5;entryY=1;entryDx=0;entryDy=0;" parent="1" source="6GVujyjc-Z2XJHwNqzD1-62" target="6GVujyjc-Z2XJHwNqzD1-30" edge="1">
          <mxGeometry relative="1" as="geometry" />
        </mxCell>
        <mxCell id="6GVujyjc-Z2XJHwNqzD1-62" value="Declare &lt;b&gt;Player 2&lt;/b&gt;&amp;nbsp;the winner" style="rounded=0;whiteSpace=wrap;html=1;" parent="1" vertex="1">
          <mxGeometry x="-11" y="1150" width="120" height="60" as="geometry" />
        </mxCell>
        <mxCell id="6GVujyjc-Z2XJHwNqzD1-67" value="NO" style="text;html=1;align=center;verticalAlign=middle;whiteSpace=wrap;rounded=0;" parent="1" vertex="1">
          <mxGeometry x="435" y="800" width="60" height="30" as="geometry" />
        </mxCell>
        <mxCell id="6GVujyjc-Z2XJHwNqzD1-74" value="YES" style="text;html=1;align=center;verticalAlign=middle;whiteSpace=wrap;rounded=0;" parent="1" vertex="1">
          <mxGeometry x="110" y="1410" width="60" height="30" as="geometry" />
        </mxCell>
        <mxCell id="6GVujyjc-Z2XJHwNqzD1-76" value="NO" style="text;html=1;align=center;verticalAlign=middle;whiteSpace=wrap;rounded=0;" parent="1" vertex="1">
          <mxGeometry x="225" y="1355" width="60" height="30" as="geometry" />
        </mxCell>
        <mxCell id="6GVujyjc-Z2XJHwNqzD1-77" value="YES" style="text;html=1;align=center;verticalAlign=middle;whiteSpace=wrap;rounded=0;" parent="1" vertex="1">
          <mxGeometry x="50" y="1225" width="60" height="30" as="geometry" />
        </mxCell>
        <mxCell id="6GVujyjc-Z2XJHwNqzD1-79" value="NO" style="text;html=1;align=center;verticalAlign=middle;whiteSpace=wrap;rounded=0;" parent="1" vertex="1">
          <mxGeometry x="-66" y="1280" width="60" height="30" as="geometry" />
        </mxCell>
        <mxCell id="6GVujyjc-Z2XJHwNqzD1-80" value="A" style="ellipse;whiteSpace=wrap;html=1;aspect=fixed;fillColor=#fff2cc;strokeColor=#d6b656;" parent="1" vertex="1">
          <mxGeometry x="140" y="800" width="80" height="80" as="geometry" />
        </mxCell>
        <mxCell id="6GVujyjc-Z2XJHwNqzD1-92" style="edgeStyle=orthogonalEdgeStyle;rounded=0;orthogonalLoop=1;jettySize=auto;html=1;exitX=0.5;exitY=1;exitDx=0;exitDy=0;entryX=0.5;entryY=0;entryDx=0;entryDy=0;" parent="1" source="6GVujyjc-Z2XJHwNqzD1-81" target="6GVujyjc-Z2XJHwNqzD1-33" edge="1">
          <mxGeometry relative="1" as="geometry" />
        </mxCell>
        <mxCell id="6GVujyjc-Z2XJHwNqzD1-81" value="A" style="ellipse;whiteSpace=wrap;html=1;aspect=fixed;fillColor=#fff2cc;strokeColor=#d6b656;" parent="1" vertex="1">
          <mxGeometry x="550" y="910" width="80" height="80" as="geometry" />
        </mxCell>
        <mxCell id="6GVujyjc-Z2XJHwNqzD1-86" value="&lt;h1 style=&quot;margin-top: 0px;&quot;&gt;Notes&lt;/h1&gt;&lt;div&gt;At any time users can reset the game by clicking the NEW GAME button;&lt;/div&gt;&lt;p&gt;Player&#39;s current and total score values should be displayed after being updated while the game is in process.&amp;nbsp;&lt;/p&gt;" style="text;html=1;whiteSpace=wrap;overflow=hidden;rounded=0;" parent="1" vertex="1">
          <mxGeometry x="360" y="60" width="180" height="210" as="geometry" />
        </mxCell>
        <mxCell id="6GVujyjc-Z2XJHwNqzD1-87" value="Do nothing" style="rounded=0;whiteSpace=wrap;html=1;" parent="1" vertex="1">
          <mxGeometry x="-50" y="440" width="120" height="60" as="geometry" />
        </mxCell>
        <mxCell id="6GVujyjc-Z2XJHwNqzD1-89" value="NO" style="text;html=1;align=center;verticalAlign=middle;whiteSpace=wrap;rounded=0;" parent="1" vertex="1">
          <mxGeometry x="240" y="690" width="60" height="30" as="geometry" />
        </mxCell>
        <mxCell id="6GVujyjc-Z2XJHwNqzD1-90" value="YES" style="text;html=1;align=center;verticalAlign=middle;whiteSpace=wrap;rounded=0;" parent="1" vertex="1">
          <mxGeometry x="265" y="1045" width="60" height="30" as="geometry" />
        </mxCell>
        <mxCell id="6GVujyjc-Z2XJHwNqzD1-93" value="Do nothing" style="rounded=0;whiteSpace=wrap;html=1;" parent="1" vertex="1">
          <mxGeometry x="690" y="1170" width="120" height="60" as="geometry" />
        </mxCell>
        <mxCell id="6GVujyjc-Z2XJHwNqzD1-95" value="NO" style="text;html=1;align=center;verticalAlign=middle;whiteSpace=wrap;rounded=0;" parent="1" vertex="1">
          <mxGeometry x="640" y="1170" width="60" height="30" as="geometry" />
        </mxCell>
      </root>
    </mxGraphModel>
  </diagram>
</mxfile>
